<?xml version="1.0" standalone="no"?>
<!DOCTYPE svg PUBLIC "-//W3C//DTD SVG 1.1//EN" "http://www.w3.org/Graphics/SVG/1.1/DTD/svg11.dtd">
<svg t="1503994210967" class="icon" style="fill:red;" viewBox="0 0 1024 1024" version="1.1" xmlns="http://www.w3.org/2000/svg" p-id="9120" xmlns:xlink="http://www.w3.org/1999/xlink" width="64" height="64">
    <defs>
        <style type="text/css"></style>
    </defs>
    <path style="fill:red;" d="M813.749049 440.942966l241.39924 0 0 64.243346-241.39924 0 0 505.186312-100.258555 0 0-505.186312-341.657795 0q17.520913 341.657795-332.897338 518.813688l0-68.136882q246.26616-149.901141 232.638783-446.78327l0-3.893536-268.653992 0 0-64.243346 268.653992 0 0-336.790875-214.144487 0 0-64.243346 960.730038 0 0 64.243346-204.410646 0 0 336.790875zM713.490494 104.152091l-341.657795 0 0 336.790875 341.657795 0 0-336.790875z"  ></path>
</svg>
